<?xml version="1.0" encoding="UTF-8"?> <svg xmlns="http://www.w3.org/2000/svg" width="105" height="55" viewBox="0 0 105 55" fill="none"><path d="M31.8772 1C20.1223 1 -7.07175 40.237 3.32104 50.4618C13.3658 60.3446 44.2562 43.8073 60.4334 50.4618C76.3227 56.9963 42.9601 1 31.8772 1Z" fill="#FC671D"></path><path d="M31.8772 1C20.1223 1 -7.07175 40.237 3.32104 50.4618C13.3658 60.3446 44.2562 43.8073 60.4334 50.4618C76.3227 56.9963 42.9601 1 31.8772 1Z" stroke="#FC671D" stroke-width="1.76552" stroke-miterlimit="10"></path><path d="M31.1451 24.9956C34.1034 24.9956 36.5396 25.8837 38.4477 27.6238C40.3559 29.3639 41.2979 31.6081 41.2979 34.3443C41.2979 37.1345 40.3559 39.4087 38.4477 41.1788C36.5396 42.919 34.1034 43.807 31.1451 43.807H22.8045V24.9956H31.1451ZM31.1451 39.6007C32.6633 39.6007 33.9654 39.1027 34.9914 38.1066C36.0175 37.0865 36.5396 35.8384 36.5396 34.3443C36.5396 32.8802 36.0115 31.6621 34.9914 30.696C33.9654 29.7 32.6693 29.2019 31.1451 29.2019H27.4789V39.6007H31.1451Z" fill="white"></path><path d="M72.2183 33.2405H64.0937C63.0616 33.2405 62.2276 34.0745 62.2276 35.1066C62.2276 36.1387 63.0616 36.9728 64.0937 36.9728H67.544C66.5479 38.8809 64.9458 39.847 62.7556 39.847C61.1235 39.847 59.8214 39.3189 58.8013 38.2989C57.8052 37.2728 57.3072 36.0007 57.3072 34.4826C57.3072 32.8204 57.8052 31.4643 58.8013 30.4443C59.7974 29.4182 61.0995 28.8961 62.7316 28.8961C64.9698 28.8961 66.4099 29.8382 67.0999 31.6924H72.0263C71.6423 29.5082 70.5622 27.7621 68.8161 26.52C67.0759 25.2479 64.9998 24.6118 62.6176 24.6118C59.7434 24.6118 57.3312 25.5539 55.423 27.432C53.5149 29.2862 52.5728 31.6924 52.5728 34.5966C52.5728 37.3328 53.5149 39.601 55.393 41.4551C57.2292 43.2372 59.5754 44.1493 62.3956 44.1913C62.4196 44.1913 62.4436 44.1913 62.4616 44.1913C62.5036 44.1913 62.5456 44.1913 62.5876 44.1913C62.8216 44.1913 63.0496 44.1793 63.2776 44.1673C73.7964 43.6153 72.2183 33.2405 72.2183 33.2405Z" fill="white"></path><path d="M44.5802 27.0718C44.5802 25.8117 45.6063 24.7856 46.8664 24.7856C48.1265 24.7856 49.1526 25.8117 49.1526 27.0718V41.7069C49.1526 42.967 48.1265 43.9931 46.8664 43.9931C45.6063 43.9931 44.5802 42.967 44.5802 41.7069V27.0718Z" fill="white"></path><path d="M76.0826 27.0718C76.0826 25.8117 77.1087 24.7856 78.3688 24.7856C79.6289 24.7856 80.655 25.8117 80.655 27.0718V41.7069C80.655 42.967 79.6289 43.9931 78.3688 43.9931C77.1087 43.9931 76.0826 42.967 76.0826 41.7069V27.0718Z" fill="white"></path><path d="M97.6902 34.3628L103.427 28.6743C104.321 27.7803 104.321 26.3342 103.427 25.4401C102.533 24.546 101.087 24.546 100.192 25.4401L94.456 31.1285L97.6902 34.3628Z" fill="#FC671D"></path><path d="M103.433 40.1051L88.7736 25.4459C87.8795 24.5519 86.4334 24.5519 85.5393 25.4459C84.6453 26.34 84.6453 27.7861 85.5393 28.6802L91.2518 34.3926L85.5393 40.1051C84.6453 40.9991 84.6453 42.4452 85.5393 43.3393C86.4334 44.2334 87.8795 44.2334 88.7736 43.3393L94.486 37.6269L100.198 43.3393C101.093 44.2334 102.539 44.2334 103.433 43.3393C104.321 42.4452 104.321 40.9931 103.433 40.1051Z" fill="white"></path></svg> 